<svg xmlns="http://www.w3.org/2000/svg" width="44" height="13" fill="none"><path fill="#4D5AE5" d="M6.436.238h2.718l1.332 4.086L11.818.238h2.736l-2.178 5.94 1.296 3.402L16.876.22h3.222L15.112 13h-2.556l-2.07-5.004L8.434 13H5.86L.892.22h3.204l3.222 9.36 1.26-3.402L6.436.238Zm24.294 10.17V13h-8.982V.22h8.82v2.592H24.7v2.484h5.04V7.69H24.7v2.718h6.03Zm12.9-.684c0 .732-.198 1.344-.594 1.836-.384.48-.906.84-1.566 1.08-.66.24-1.386.36-2.178.36h-6.228V.22h7.11c.6 0 1.116.162 1.548.486.444.312.78.72 1.008 1.224.24.504.36 1.026.36 1.566 0 .6-.156 1.176-.468 1.728-.312.54-.768.948-1.368 1.224.732.216 1.308.6 1.728 1.152.432.552.648 1.26.648 2.124Zm-3.006-.594c0-.276-.054-.516-.162-.72a1.275 1.275 0 0 0-.432-.504.96.96 0 0 0-.612-.198h-3.402v2.79h3.276c.252 0 .474-.06.666-.18.204-.12.366-.282.486-.486.12-.204.18-.438.18-.702Zm-4.608-6.39v2.646h2.898c.216 0 .414-.048.594-.144.192-.096.348-.24.468-.432.12-.204.18-.456.18-.756 0-.288-.054-.528-.162-.72a.992.992 0 0 0-.396-.432 1.042 1.042 0 0 0-.576-.162h-3.006Z"/></svg>